<?xml version="1.0" standalone="no"?><!DOCTYPE svg PUBLIC "-//W3C//DTD SVG 1.1//EN" "http://www.w3.org/Graphics/SVG/1.1/DTD/svg11.dtd"><svg t="1673882956837" class="icon" viewBox="0 0 1024 1024" version="1.1" xmlns="http://www.w3.org/2000/svg" p-id="10144" xmlns:xlink="http://www.w3.org/1999/xlink" width="200" height="200"><path d="M619.242394 33.370353C511.362292 69.283683 427.068235 156.821279 395.672552 266.685217c36.40045 15.134772 79.153105 0.848532 98.755765-34.432327 22.734895-40.918097 55.937637-75.342568 96.007202-99.565013 34.543632-20.882005 47.254588-64.133565 30.792021-99.957851l-1.985146 0.641636zM980.673801 365.850844c-85.04045-75.469586-202.99687-104.700726-313.838977-76.959754 5.093811 39.091396 38.841289 68.97334 79.196317 68.309442 46.802824-0.769964 93.218046 10.772951 134.230424 33.362496 35.355499 19.474332 79.167509 8.857207 101.96133-23.312368l-1.549094-1.398507zM873.453668 845.101176c22.837033-111.382916-10.82533-228.150343-90.270445-310.272-31.307949 23.956624-40.311816 68.123499-19.559448 102.740461 24.067928 40.148133 37.280409 86.11421 38.223222 132.927509 0.811867 40.355028 31.912921 72.989463 71.16931 76.645483l0.437361-2.041453zM404.800818 991.871018c107.878793-35.91333 192.17154-123.449616 223.568532-233.313555-36.40045-15.134772-79.153105-0.848532-98.755764 34.432327-22.733586 40.918097-55.937637 75.342568-96.007202 99.565013-34.543632 20.882005-47.254588 64.133565-30.792021 99.957852l1.986455-0.641637zM43.369412 659.389217c85.04045 75.470895 202.99556 104.702036 313.838977 76.961064-5.093811-39.091396-38.842598-68.97334-79.196317-68.309442-46.804133 0.769964-93.218046-10.772951-134.230425-33.362496-35.355499-19.474332-79.170128-8.857207-101.962639 23.312368l1.549094 1.398506zM150.588235 180.140194c-22.837033 111.382916 10.82533 228.150343 90.270445 310.272 31.307949-23.956624 40.311816-68.123499 19.559448-102.74046-24.067928-40.148133-37.280409-86.11421-38.223223-132.927509-0.811867-40.355028-31.911611-72.989463-71.169309-76.645483l-0.436051 2.041452z" fill="#979797" p-id="10145"></path><path d="M511.345269 395.457801c64.002619 0 115.887468 51.884849 115.887468 115.887468S575.347887 627.232737 511.345269 627.232737 395.457801 575.347887 395.457801 511.345269s51.884849-115.887468 115.887468-115.887468z m0 78.567774c-20.610946 0-37.319693 16.708747-37.319694 37.319694s16.708747 37.319693 37.319694 37.319693 37.319693-16.708747 37.319693-37.319693-16.708747-37.319693-37.319693-37.319694z" fill="#979797" p-id="10146"></path><path d="M471.40665 349.626598m39.283887 0l0 0q39.283887 0 39.283888 39.283888l0 26.189258q0 39.283887-39.283888 39.283888l0 0q-39.283887 0-39.283887-39.283888l0-26.189258q0-39.283887 39.283887-39.283888Z" fill="#979797" p-id="10147"></path><path d="M631.667909 396.792455m19.641943 34.020844l0 0q19.641944 34.020845-14.3789 53.662788l-22.680563 13.09463q-34.020845 19.641944-53.662789-14.378901l0 0q-19.641944-34.020845 14.378901-53.662788l22.680563-13.09463q34.020845-19.641944 53.662788 14.378901Z" fill="#979797" p-id="10148"></path><path d="M670.951796 559.165856m-19.641944 34.020845l0 0q-19.641944 34.020845-53.662788 14.378901l-22.680563-13.09463q-34.020845-19.641944-14.378901-53.662788l0 0q19.641944-34.020845 53.662789-14.378901l22.680563 13.09463q34.020845 19.641944 14.3789 53.662788Z" fill="#979797" p-id="10149"></path><path d="M549.974425 674.373402m-39.283888 0l0 0q-39.283887 0-39.283887-39.283888l0-26.189258q0-39.283887 39.283887-39.283888l0 0q39.283887 0 39.283888 39.283888l0 26.189258q0 39.283887-39.283888 39.283888Z" fill="#979797" p-id="10150"></path><path d="M389.713166 627.207545m-19.641944-34.020844l0 0q-19.641944-34.020845 14.378901-53.662788l22.680563-13.09463q34.020845-19.641944 53.662788 14.378901l0 0q19.641944 34.020845-14.378901 53.662788l-22.680563 13.09463q-34.020845 19.641944-53.662788-14.378901Z" fill="#979797" p-id="10151"></path><path d="M350.429278 464.834144m19.641944-34.020845l0 0q19.641944-34.020845 53.662788-14.378901l22.680563 13.09463q34.020845 19.641944 14.378901 53.662788l0 0q-19.641944 34.020845-53.662788 14.378901l-22.680563-13.09463q-34.020845-19.641944-14.378901-53.662788Z" fill="#979797" p-id="10152"></path></svg>